<svg width="242" height="234" viewBox="0 0 242 234" fill="none" xmlns="http://www.w3.org/2000/svg">
<path d="M67.072 67.328V83.2H174.336V67.328H67.072ZM67.072 108.288V124.416H174.336V108.288H67.072ZM67.072 26.624V42.496H174.336V26.624H67.072ZM37.376 0H205.568V151.04H37.376V0ZM132.352 130.56H163.84V191.744C163.84 195.84 164.437 198.485 165.632 199.68C166.997 200.704 170.069 201.216 174.848 201.216C175.872 201.216 177.493 201.216 179.712 201.216C182.101 201.216 184.747 201.216 187.648 201.216C190.549 201.216 193.28 201.216 195.84 201.216C198.4 201.216 200.363 201.216 201.728 201.216C204.629 201.216 206.848 200.448 208.384 198.912C209.92 197.376 211.029 194.133 211.712 189.184C212.395 184.235 212.907 176.725 213.248 166.656C215.467 168.363 218.197 170.069 221.44 171.776C224.853 173.483 228.352 174.933 231.936 176.128C235.691 177.323 238.848 178.347 241.408 179.2C240.384 192.683 238.592 203.093 236.032 210.432C233.472 217.941 229.717 223.147 224.768 226.048C219.819 228.949 213.077 230.4 204.544 230.4C203.179 230.4 201.301 230.4 198.912 230.4C196.693 230.4 194.219 230.4 191.488 230.4C188.757 230.4 185.941 230.4 183.04 230.4C180.309 230.4 177.835 230.4 175.616 230.4C173.397 230.4 171.691 230.4 170.496 230.4C160.427 230.4 152.576 229.205 146.944 226.816C141.483 224.427 137.643 220.416 135.424 214.784C133.376 209.152 132.352 201.557 132.352 192V130.56ZM69.888 141.056H102.656C101.632 152.661 99.7547 163.328 97.024 173.056C94.464 182.613 90.1973 191.232 84.224 198.912C78.4213 206.592 70.144 213.248 59.392 218.88C48.64 224.683 34.6453 229.547 17.408 233.472C16.5547 230.571 15.104 227.413 13.056 224C11.1787 220.757 9.04533 217.429 6.656 214.016C4.43733 210.773 2.21867 208.128 0 206.08C14.848 203.349 26.7093 200.021 35.584 196.096C44.4587 192 51.2 187.307 55.808 182.016C60.5867 176.725 63.9147 170.752 65.792 164.096C67.6693 157.269 69.0347 149.589 69.888 141.056Z" fill="black"/>
</svg>
